<svg width="64" height="74" viewBox="0 0 64 74" fill="none" xmlns="http://www.w3.org/2000/svg">
<path d="M19.4175 12.9021C20.7335 12.1435 20.7335 10.9007 19.4175 10.1554L2.38248 0.322618C1.06812 -0.435942 0 0.191431 0 1.69705V21.3625C0 22.8813 1.06812 23.4951 2.38248 22.7348L19.4175 12.9021Z" fill="#F2A717"/>
<path d="M19.4175 38.0766C20.7335 37.3163 20.7335 36.0751 19.4175 35.3281L2.38248 25.4955C1.06812 24.737 0 25.3656 0 26.8695V46.5351C0 48.0541 1.06812 48.668 2.38248 47.9077L19.4175 38.0766Z" fill="#6F4DAB"/>
<path d="M19.4175 63.2488C20.7335 62.4902 20.7335 61.2474 19.4175 60.502L2.38248 50.6693C1.06812 49.9106 0 50.5379 0 52.0435V71.7073C0 73.228 1.06812 73.8419 2.38248 73.0815L19.4175 63.2488Z" fill="#F032A2"/>
<path d="M19.4175 63.2488C20.7335 62.4902 20.7335 61.2474 19.4175 60.502L2.38248 50.6693C1.06812 49.9106 0 50.5379 0 52.0435V71.7073C0 73.228 1.06812 73.8419 2.38248 73.0815L19.4175 63.2488Z" fill="#DA2D94"/>
<path d="M21.7993 33.94C21.7993 35.4606 22.8641 36.0745 24.1801 35.3142L41.2152 25.4817C42.5295 24.7227 42.5295 23.4799 41.2152 22.7345L24.1801 12.9018C22.8641 12.1432 21.7993 12.7706 21.7993 14.2762V33.94Z" fill="#68BDDC"/>
<path d="M21.801 59.1147C21.801 60.6337 22.8658 61.2476 24.1818 60.4873L41.2168 50.6546C42.5312 49.8959 42.5312 48.6531 41.2168 47.9077L24.1818 38.0767C22.8658 37.3164 21.7993 37.9436 21.7993 39.4493V59.1147H21.801Z" fill="#A1D72E"/>
<path d="M43.5981 46.5196C43.5981 48.0386 44.6629 48.6525 45.979 47.8938L63.014 38.0611C64.3284 37.3008 64.3284 36.0597 63.014 35.3143L45.979 25.4818C44.6629 24.7228 43.5981 25.3502 43.5981 26.8541V46.5196Z" fill="#D22E40"/>
</svg>
