<svg width="107" height="24" viewBox="0 0 107 24" fill="none" xmlns="http://www.w3.org/2000/svg">
<path d="M80.8721 3.60956H83.8221V18.7439H80.8721V3.60956Z" fill="#A1D72E"/>
<path d="M74.1302 10.0807C72.8682 10.0807 72.0448 10.5655 72.0448 11.8921V14.2291C72.0448 15.6838 72.5114 16.6072 74.089 16.6072C76.0693 16.6072 76.3437 14.8374 76.3437 13.2187C76.3396 11.5536 76.1057 10.0807 74.1302 10.0807ZM74.7614 18.7984C73.5172 18.7984 72.8448 18.5057 72.15 17.5129H72.1088V22.8645H69.1406V7.9952H71.6469L71.8344 9.23946H71.8754C72.6344 8.14626 73.5588 7.76186 74.8666 7.76186C78.0864 7.76186 79.353 10.2869 79.353 13.1775C79.353 16.1916 78.1093 18.7984 74.7614 18.7984Z" fill="#68BDDC"/>
<path d="M102.505 18.9902C101.115 22.5073 100.443 23.3079 97.8725 23.3079C97.4517 23.3079 97.008 23.2855 96.2715 23.2032V20.7376C96.4637 20.7558 96.8204 20.8016 97.4517 20.8016C98.5861 20.8016 98.8647 20.5089 99.2397 19.5579L99.7247 18.3594L95.5767 7.99533H98.796L101.239 15.3042H101.28L103.658 7.99533H106.837L102.505 18.9902Z" fill="#D22E40"/>
<path d="M94.9223 16.0817V12.0202C94.9223 8.98801 93.765 7.76654 90.6687 7.76654C88.7931 7.76654 87.2567 8.18748 85.5921 9.02908L86.5155 11.0504C87.6958 10.3963 89.0218 9.95721 90.3895 9.95721C91.4645 9.95721 91.9494 10.2728 91.9494 11.2656V11.7687C89.3193 11.7504 85.3359 12.1072 85.3359 15.601C85.3359 17.6458 86.7447 18.8213 88.7473 18.8213C90.0469 18.8213 91.2359 18.3869 92.2645 17.5728C92.2739 17.6369 92.2827 17.6916 92.2926 17.7239C92.6125 18.7437 94.3639 18.8124 95.6859 18.7437L95.7911 16.4932C95.2421 16.4749 94.9223 16.4015 94.9223 16.0817ZM92.0177 15.9807C91.2999 16.4843 90.5223 16.8228 89.6166 16.8228C88.7526 16.8228 88.2265 16.2739 88.2265 15.3911C88.2265 13.4744 90.6275 13.452 92.0177 13.452V15.9807Z" fill="#F2A717"/>
<path d="M38.5515 10.1043C36.6994 10.1043 36.1275 11.2199 36.1275 13.283C36.1275 15.3866 36.7176 16.5486 38.5696 16.5486C40.3811 16.5486 40.9712 15.4095 40.9712 13.283C40.9712 11.2199 40.404 10.1043 38.5515 10.1043ZM38.5515 18.7986C34.8879 18.7986 33.1182 16.5668 33.1182 13.283C33.1182 10.209 34.6963 7.76676 38.5515 7.76676C42.1098 7.76676 43.9624 9.87516 43.9624 13.283C43.9624 16.5486 42.2332 18.7986 38.5515 18.7986Z" fill="white"/>
<path d="M23.7241 4.5241V7.15383H27.6804V18.7439H30.7996V7.15383H34.7559V4.5241H23.7241Z" fill="white"/>
<path d="M50.9006 16.301C49.3818 16.3375 49.2408 16.1458 49.2266 15.2448C49.2266 15.1989 49.2266 15.1484 49.2266 15.0984V10.3781H51.6694V7.99994H49.2266V5.201H46.2996V7.99994H44.5522V10.3781H46.2813V15.4135C46.2813 17.9614 46.9766 18.762 49.8397 18.762C50.3657 18.762 50.8689 18.6979 51.6694 18.6156V16.2505C51.4496 16.2687 51.2668 16.2922 50.9006 16.301Z" fill="white"/>
<path d="M64.5254 3.60956H67.4754V18.7439H64.5254V3.60956Z" fill="white"/>
<path d="M62.4586 16.0817V12.0202C62.4586 8.98801 61.3013 7.76654 58.2049 7.76654C56.3299 7.76654 54.7929 8.18748 53.1283 9.02908L54.0523 11.0504C55.2319 10.3963 56.5586 9.95721 57.9262 9.95721C59.0013 9.95721 59.4857 10.2728 59.4857 11.2656V11.7687C56.8559 11.7504 52.8721 12.1072 52.8721 15.601C52.8721 17.6458 54.2805 18.8213 56.2841 18.8213C57.583 18.8213 58.7721 18.3869 59.8013 17.5728C59.8101 17.6369 59.8195 17.6916 59.8283 17.7239C60.1486 18.7437 61.9002 18.8124 63.2226 18.7437L63.3273 16.4932C62.7789 16.4749 62.4586 16.4015 62.4586 16.0817ZM59.5538 15.9807C58.8362 16.4843 58.0586 16.8228 57.1529 16.8228C56.2882 16.8228 55.7627 16.2739 55.7627 15.3911C55.7627 13.4744 58.1638 13.452 59.5538 13.452V15.9807Z" fill="white"/>
<path d="M6.07864 4.03898C6.49063 3.80152 6.49063 3.41245 6.07864 3.17912L0.745833 0.100986C0.334375 -0.13648 0 0.0599183 0 0.531252V6.68752C0 7.16299 0.334375 7.35512 0.745833 7.11712L6.07864 4.03898Z" fill="#F2A717"/>
<path d="M6.07864 11.9199C6.49063 11.6819 6.49063 11.2933 6.07864 11.0595L0.745833 7.98137C0.334375 7.74391 0 7.94071 0 8.41151V14.5678C0 15.0433 0.334375 15.2355 0.745833 14.9975L6.07864 11.9199Z" fill="#6F4DAB"/>
<path d="M6.07864 19.8C6.49063 19.5625 6.49063 19.1734 6.07864 18.9401L0.745833 15.862C0.334375 15.6245 0 15.8208 0 16.2922V22.4479C0 22.924 0.334375 23.1161 0.745833 22.8781L6.07864 19.8Z" fill="#F032A2"/>
<path d="M6.07864 19.8C6.49063 19.5625 6.49063 19.1734 6.07864 18.9401L0.745833 15.862C0.334375 15.6245 0 15.8208 0 16.2922V22.4479C0 22.924 0.334375 23.1161 0.745833 22.8781L6.07864 19.8Z" fill="#DA2D94"/>
<path d="M6.82422 10.6249C6.82422 11.101 7.15755 11.2931 7.56953 11.0551L12.9023 7.97706C13.3138 7.73946 13.3138 7.35039 12.9023 7.11706L7.56953 4.03892C7.15755 3.80146 6.82422 3.99786 6.82422 4.46919V10.6249Z" fill="#68BDDC"/>
<path d="M6.82474 18.5058C6.82474 18.9813 7.15807 19.1735 7.57005 18.9355L12.9029 15.8574C13.3143 15.6198 13.3143 15.2308 12.9029 14.9975L7.57005 11.9198C7.15807 11.6818 6.82422 11.8782 6.82422 12.3495V18.5058H6.82474Z" fill="#A1D72E"/>
<path d="M13.6484 14.563C13.6484 15.0385 13.9818 15.2307 14.3938 14.9932L19.7266 11.9151C20.138 11.677 20.138 11.2885 19.7266 11.0552L14.3938 7.9771C13.9818 7.7395 13.6484 7.9359 13.6484 8.4067V14.563Z" fill="#D22E40"/>
</svg>
